<?xml version="1.0" encoding="iso-8859-1"?>
<!-- Uploaded to: SVG Repo, www.svgrepo.com, Generator: SVG Repo Mixer Tools -->
<svg version="1.1" id="Layer_1" xmlns="http://www.w3.org/2000/svg" xmlns:xlink="http://www.w3.org/1999/xlink" 
	 viewBox="0 0 512 512" xml:space="preserve">
<polygon style="fill:#3FE251;" points="300.425,389.831 189.362,389.831 144.937,500.894 256,500.894 322.638,500.894 
	344.85,500.894 "/>
<rect x="167.15" y="345.406" style="fill:#C8F4DE;" width="155.488" height="44.425"/>
<path style="fill:#8742CC;" d="M256,11.106c-85.874,0-155.488,69.614-155.488,155.488h310.976
	C411.488,80.721,341.874,11.106,256,11.106z"/>
<path style="fill:#4A7DBA;" d="M412.599,166.594H99.401c-48.457,0-87.74,39.283-87.74,87.74v23.323l0,0
	c27.725,42.279,74.882,67.748,125.44,67.748h237.797c50.558,0,97.715-25.469,125.44-67.748l0,0v-23.323
	C500.338,205.877,461.055,166.594,412.599,166.594z"/>
<path d="M122.725,199.913c-12.248,0-22.213,9.965-22.213,22.213c0,12.248,9.965,22.213,22.213,22.213s22.213-9.965,22.213-22.213
	C144.937,209.878,134.973,199.913,122.725,199.913z"/>
<path d="M189.362,244.338c12.248,0,22.213-9.965,22.213-22.213c0-12.248-9.965-22.213-22.213-22.213s-22.213,9.965-22.213,22.213
	C167.15,234.374,177.114,244.338,189.362,244.338z"/>
<path d="M389.276,244.338c12.248,0,22.213-9.965,22.213-22.213c0-12.248-9.965-22.213-22.213-22.213
	c-12.248,0-22.213,9.965-22.213,22.213C367.063,234.374,377.027,244.338,389.276,244.338z"/>
<path d="M322.638,244.338c12.248,0,22.213-9.965,22.213-22.213c0-12.248-9.965-22.213-22.213-22.213
	c-12.248,0-22.213,9.965-22.213,22.213C300.425,234.374,310.39,244.338,322.638,244.338z"/>
<path d="M256,244.338c12.248,0,22.213-9.965,22.213-22.213c0-12.248-9.965-22.213-22.213-22.213s-22.213,9.965-22.213,22.213
	C233.787,234.374,243.752,244.338,256,244.338z"/>
<path d="M510.45,282.234c0.202-0.444,0.38-0.902,0.522-1.375c0.01-0.033,0.017-0.069,0.027-0.102
	c0.123-0.425,0.217-0.863,0.29-1.308c0.019-0.112,0.037-0.223,0.051-0.337c0.062-0.476,0.106-0.96,0.106-1.454v-23.323
	c0-51.25-39.205-93.509-89.199-98.374C416.741,69.037,344.287,0,256,0S95.259,69.037,89.754,155.96
	c-49.994,4.865-89.199,47.124-89.199,98.374v23.323c0,0.494,0.043,0.977,0.106,1.454c0.014,0.113,0.033,0.224,0.051,0.337
	c0.072,0.445,0.167,0.883,0.29,1.308c0.01,0.034,0.017,0.069,0.027,0.102c0.142,0.473,0.32,0.931,0.522,1.375
	c0.037,0.082,0.079,0.162,0.118,0.244c0.194,0.401,0.408,0.79,0.646,1.162c0.022,0.034,0.037,0.072,0.059,0.107
	c0.017,0.026,0.036,0.051,0.052,0.077c0.019,0.029,0.039,0.057,0.058,0.086c29.891,45.466,80.2,72.604,134.618,72.604h18.942v33.319
	c0,6.133,4.973,11.106,11.106,11.106h5.807l-38.332,95.832c-1.368,3.422-0.95,7.299,1.116,10.351c2.066,3.051,5.511,4.88,9.196,4.88
	H256c6.133,0,11.106-4.973,11.106-11.106c0-6.133-4.973-11.106-11.106-11.106h-94.658l35.54-88.85h96.024l35.54,88.85h-5.809
	c-6.133,0-11.106,4.973-11.106,11.106c0,6.133,4.973,11.106,11.106,11.106h22.213c3.685,0,7.13-1.828,9.196-4.88
	c2.066-3.052,2.484-6.929,1.116-10.351l-38.332-95.832h5.807c6.133,0,11.106-4.973,11.106-11.106v-33.319h41.154
	c54.42,0,104.727-27.138,134.617-72.602c0.019-0.029,0.039-0.057,0.058-0.086c0.017-0.026,0.036-0.051,0.052-0.077
	c0.022-0.034,0.038-0.072,0.059-0.107c0.239-0.372,0.453-0.762,0.646-1.162C510.371,282.396,510.413,282.316,510.45,282.234z
	 M256,22.213c75.875,0,138.269,58.833,143.959,133.275H112.041C117.731,81.046,180.125,22.213,256,22.213z M311.531,378.725h-11.106
	H189.362h-11.106v-22.213h133.275V378.725z M374.898,334.299h-52.261H167.15h-30.048c-39.641,0-76.743-16.714-102.844-45.536h66.255
	c6.133,0,11.106-4.973,11.106-11.106c0-6.133-4.973-11.106-11.106-11.106H22.768v-12.217c0-42.256,34.377-76.633,76.633-76.633
	h1.111h310.976h1.111c42.256,0,76.633,34.377,76.633,76.633v12.217H167.15c-6.133,0-11.106,4.973-11.106,11.106
	c0,6.133,4.973,11.106,11.106,11.106h310.593C451.642,317.585,414.539,334.299,374.898,334.299z"/>
<path d="M299.569,496.651c-0.278-0.677-0.622-1.321-1.022-1.92c-0.399-0.612-0.865-1.178-1.377-1.689
	c-0.511-0.511-1.077-0.977-1.688-1.377c-0.6-0.411-1.244-0.744-1.921-1.022c-0.666-0.278-1.365-0.5-2.076-0.644
	c-1.433-0.278-2.899-0.278-4.331,0c-0.711,0.144-1.41,0.366-2.077,0.644c-0.677,0.278-1.321,0.611-1.92,1.022
	c-0.612,0.4-1.178,0.866-1.689,1.377c-0.511,0.511-0.977,1.077-1.377,1.689c-0.399,0.6-0.744,1.243-1.022,1.92
	c-0.278,0.668-0.5,1.366-0.644,2.077c-0.144,0.711-0.21,1.444-0.21,2.166c0,2.921,1.187,5.786,3.254,7.851
	c0.511,0.512,1.077,0.978,1.689,1.377c0.6,0.4,1.243,0.744,1.92,1.022c0.668,0.278,1.366,0.5,2.077,0.633
	c0.711,0.144,1.444,0.222,2.166,0.222c0.721,0,1.455-0.078,2.166-0.222c0.711-0.133,1.41-0.355,2.076-0.633
	c0.677-0.278,1.322-0.622,1.921-1.022c0.611-0.399,1.177-0.865,1.688-1.377c0.512-0.511,0.978-1.077,1.377-1.688
	c0.4-0.6,0.744-1.244,1.022-1.921c0.278-0.666,0.5-1.365,0.633-2.076c0.144-0.712,0.222-1.445,0.222-2.166
	c0-0.722-0.078-1.456-0.222-2.166C300.07,498.017,299.847,497.317,299.569,496.651z"/>
</svg>