<?xml version="1.0" encoding="iso-8859-1"?>
<svg version="1.1" id="Layer_1" xmlns="http://www.w3.org/2000/svg" xmlns:xlink="http://www.w3.org/1999/xlink" 
	 viewBox="0 0 511.999 511.999" xml:space="preserve">
<path style="fill:#846ABC ;" d="M250.41,11.177c-49.789,0-90.151,40.362-90.151,90.151h180.302
	C340.561,51.54,300.199,11.177,250.41,11.177z"/>
<path style="fill:#4E6303;" d="M392.076,165.722H108.744v-13.523c0-28.095,22.776-50.871,50.871-50.871h181.59
	c28.095,0,50.871,22.776,50.871,50.871L392.076,165.722L392.076,165.722z"/>
<rect x="173.139" y="165.719" style="fill:#4AC8B5 ;" width="154.542" height="25.763"/>
<path style="fill:#92C9FF;" d="M475.059,500.823c2.933-14.446,4.476-29.396,4.476-44.707c0-24.659-3.993-48.386-11.37-70.566
	c-22.394-67.366-75.972-120.496-143.622-142.261c-21.601-6.961-44.636-10.71-68.544-10.71c-91.711,0-170.528,55.234-204.993,134.264
	c-11.929,27.342-18.543,57.53-18.543,89.273c0,15.311,1.542,30.261,4.475,44.707H475.059z"/>
<g>
	<path style="fill:#3057C8;" d="M255.998,232.58c23.908,0,46.943,3.749,68.544,10.71c-9.277,15.851-22.597,31.193-39.404,44.3
		c-15.86,12.367-32.897,21.24-49.586,26.511c-29.857,9.43-54.752,29.952-71.451,56.437c-13.895,22.037-33.593,35.789-55.435,35.789
		c-23.034,0-43.691-15.302-57.662-39.484C85.471,287.813,164.288,232.58,255.998,232.58z"/>
	<path style="fill:#C84930 ;" d="M289.263,440.901c2.388,3.288,20.925,40.055,20.925,40.055l23.167-13.057l0,0
		c26.191-21.59,33.962-58.428,18.722-88.757l-2.147-4.274l-19.818-2.213c-15.07-1.682-28.922,8.445-31.889,23.317L289.263,440.901z"
		/>
	<path style="fill:#256F05 ;" d="M475.095,500.823c2.898-14.393,4.43-29.296,4.439-44.571c0.015-24.709-3.98-48.481-11.37-70.702
		l-43.004,6.175c-14.239,2.044-25.556,13.002-28.058,27.167l-10.943,61.937c-1.417,8.024-5.687,15.046-11.748,19.994h100.684
		V500.823z"/>
</g>
<path d="M108.744,176.899h53.217v14.58c0,6.172,5.004,11.177,11.177,11.177h154.544c6.173,0,11.177-5.005,11.177-11.177v-14.58
	h53.217c6.173,0,11.177-5.005,11.177-11.177v-13.524c0-30.807-22.57-56.428-52.04-61.229C346.009,39.945,302.787,0,250.41,0
	s-95.598,39.945-100.803,90.97c-29.47,4.8-52.04,30.423-52.04,61.229v13.524C97.567,171.895,102.571,176.899,108.744,176.899z
	 M316.506,180.302H184.315v-3.403h132.19v3.403H316.506z M250.41,22.354c39.754,0,72.742,29.524,78.186,67.797H172.225
	C177.669,51.877,210.656,22.354,250.41,22.354z M119.921,152.199c0-21.888,17.807-39.694,39.694-39.694h0.644h180.302h0.644
	c21.888,0,39.694,17.807,39.694,39.694v2.347h-53.217H173.138h-53.217V152.199z"/>
<path d="M490.712,456.259c0-0.027-0.001-0.055-0.001-0.082c0-0.02,0.001-0.041,0.001-0.061c0-0.75-0.016-1.499-0.022-2.249
	c-0.008-0.813-0.008-1.625-0.023-2.437c-0.015-0.764-0.045-1.526-0.067-2.289c-0.023-0.816-0.04-1.633-0.073-2.449
	c-0.03-0.77-0.076-1.539-0.114-2.309c-0.04-0.807-0.073-1.615-0.121-2.421c-0.046-0.769-0.106-1.536-0.16-2.302
	c-0.056-0.804-0.104-1.608-0.168-2.412c-0.063-0.787-0.14-1.57-0.21-2.355c-0.07-0.782-0.133-1.565-0.21-2.346
	c-0.083-0.825-0.18-1.647-0.27-2.471c-0.082-0.738-0.155-1.477-0.244-2.212c-0.103-0.861-0.222-1.719-0.335-2.577
	c-0.092-0.697-0.175-1.397-0.273-2.095c-0.126-0.9-0.268-1.795-0.406-2.692c-0.099-0.653-0.191-1.308-0.295-1.959
	c-0.156-0.97-0.329-1.937-0.497-2.906c-0.101-0.577-0.192-1.155-0.296-1.729c-0.188-1.036-0.393-2.069-0.596-3.102
	c-0.098-0.505-0.189-1.012-0.292-1.516c-0.22-1.087-0.457-2.171-0.693-3.255c-0.097-0.448-0.187-0.898-0.286-1.345
	c-0.248-1.11-0.514-2.216-0.778-3.322c-0.101-0.419-0.192-0.839-0.295-1.257c-0.292-1.189-0.6-2.375-0.91-3.561
	c-0.087-0.331-0.167-0.664-0.255-0.995c-0.287-1.077-0.591-2.15-0.894-3.225c-0.123-0.437-0.239-0.877-0.364-1.314
	c-0.203-0.706-0.422-1.409-0.633-2.115c-0.687-2.302-1.399-4.598-2.158-6.88c-0.001-0.003-0.003-0.008-0.004-0.011
	c-23.512-70.711-79.884-126.546-150.797-149.36c-23.164-7.464-47.379-11.247-71.972-11.247c-14.595,0-28.971,1.351-42.985,3.958
	c-7.007,1.303-13.922,2.921-20.729,4.84c-3.061,0.863-6.098,1.794-9.114,2.777C124.505,252.123,74.815,293.97,46.321,350.534
	c-1.954,3.878-3.808,7.826-5.559,11.841c0,0.001-0.001,0.002-0.001,0.003c-12.922,29.62-19.473,61.158-19.473,93.737
	c0,15.785,1.582,31.575,4.699,46.93c1.057,5.21,5.638,8.954,10.953,8.954h337.474h100.647h0.037c5.322,0,9.907-3.753,10.957-8.97
	c2.701-13.422,4.238-27.173,4.584-40.955c0.018-0.707,0.016-1.416,0.028-2.124C490.684,458.719,490.712,457.49,490.712,456.259z
	 M261.739,243.841c0.446,0.012,0.893,0.025,1.339,0.039c1.886,0.061,3.768,0.142,5.647,0.253c0.213,0.013,0.426,0.03,0.639,0.044
	c1.722,0.107,3.441,0.237,5.157,0.386c0.426,0.037,0.852,0.072,1.276,0.112c1.854,0.171,3.704,0.364,5.55,0.583
	c0.335,0.04,0.669,0.085,1.004,0.126c1.63,0.201,3.255,0.422,4.878,0.662c0.387,0.057,0.773,0.111,1.16,0.17
	c1.825,0.279,3.647,0.582,5.462,0.909c0.404,0.073,0.806,0.151,1.208,0.226c1.611,0.3,3.218,0.616,4.819,0.953
	c0.313,0.066,0.627,0.127,0.939,0.194c1.805,0.388,3.605,0.804,5.398,1.238c0.183,0.045,0.367,0.092,0.549,0.136
	c-7.864,10.525-17.539,20.356-28.5,28.905c-14.264,11.121-30.198,19.651-46.08,24.665c-31.397,9.917-58.934,31.628-77.539,61.135
	c-12.431,19.716-28.76,30.573-45.981,30.573c-16.662,0-32.848-10.531-45.029-29.1c0.151-0.322,0.301-0.644,0.453-0.965
	c0.275-0.58,0.552-1.158,0.833-1.735c0.289-0.597,0.583-1.19,0.877-1.783c0.281-0.563,0.562-1.127,0.847-1.687
	c0.304-0.599,0.612-1.195,0.922-1.789c0.286-0.55,0.573-1.099,0.864-1.645c0.317-0.598,0.639-1.191,0.962-1.785
	c0.292-0.538,0.585-1.074,0.881-1.608c0.332-0.599,0.668-1.194,1.006-1.788c0.296-0.521,0.592-1.043,0.892-1.561
	c0.349-0.602,0.703-1.202,1.057-1.801c0.297-0.503,0.596-1.006,0.896-1.506c0.367-0.607,0.738-1.209,1.109-1.812
	c0.3-0.486,0.598-0.971,0.902-1.454c0.383-0.61,0.773-1.217,1.162-1.823c0.301-0.468,0.6-0.937,0.904-1.402
	c0.399-0.61,0.805-1.217,1.209-1.823c0.304-0.455,0.606-0.91,0.913-1.361c0.419-0.617,0.845-1.229,1.271-1.841
	c0.3-0.43,0.597-0.862,0.899-1.29c0.443-0.627,0.892-1.248,1.342-1.87c0.295-0.409,0.589-0.819,0.886-1.225
	c0.465-0.634,0.937-1.261,1.407-1.888c0.291-0.387,0.578-0.776,0.871-1.16c0.49-0.643,0.987-1.28,1.483-1.916
	c0.283-0.363,0.563-0.728,0.848-1.089c0.522-0.659,1.051-1.312,1.579-1.966c0.267-0.329,0.53-0.661,0.799-0.988
	c0.56-0.683,1.128-1.359,1.697-2.034c0.246-0.292,0.487-0.587,0.734-0.877c0.614-0.722,1.234-1.435,1.856-2.147
	c0.208-0.237,0.411-0.478,0.62-0.714c0.687-0.78,1.384-1.551,2.081-2.32c0.149-0.164,0.296-0.332,0.446-0.495
	c0.798-0.873,1.604-1.738,2.415-2.598c0.054-0.057,0.107-0.115,0.161-0.172c4.372-4.616,8.941-9.025,13.69-13.215
	c0.076-0.067,0.154-0.133,0.231-0.2c0.866-0.762,1.737-1.518,2.614-2.266c0.165-0.141,0.333-0.278,0.5-0.419
	c0.794-0.672,1.589-1.339,2.392-1.998c0.215-0.176,0.431-0.348,0.646-0.523c0.758-0.618,1.518-1.234,2.285-1.84
	c0.254-0.201,0.511-0.398,0.766-0.598c0.731-0.573,1.463-1.146,2.202-1.709c0.289-0.221,0.582-0.438,0.873-0.657
	c0.71-0.535,1.419-1.071,2.136-1.598c0.315-0.231,0.633-0.458,0.949-0.688c0.697-0.507,1.396-1.014,2.1-1.513
	c0.335-0.238,0.674-0.471,1.01-0.706c0.69-0.483,1.379-0.966,2.076-1.441c0.354-0.243,0.712-0.479,1.068-0.72
	c0.682-0.459,1.364-0.919,2.051-1.37c0.373-0.246,0.75-0.487,1.126-0.73c0.676-0.438,1.352-0.876,2.034-1.307
	c0.388-0.245,0.778-0.486,1.167-0.728c0.674-0.42,1.35-0.839,2.029-1.253c0.4-0.244,0.802-0.483,1.204-0.722
	c0.673-0.403,1.347-0.805,2.024-1.2c0.415-0.241,0.83-0.479,1.246-0.719c0.669-0.384,1.339-0.768,2.013-1.146
	c0.429-0.24,0.859-0.477,1.291-0.714c0.666-0.368,1.333-0.733,2.004-1.094c0.439-0.236,0.88-0.468,1.32-0.701
	c0.669-0.353,1.339-0.705,2.012-1.052c0.446-0.23,0.894-0.456,1.342-0.683c0.671-0.34,1.343-0.676,2.019-1.009
	c0.455-0.225,0.912-0.446,1.368-0.667c0.673-0.325,1.347-0.648,2.023-0.967c0.465-0.219,0.931-0.435,1.398-0.65
	c0.671-0.31,1.343-0.617,2.019-0.921c0.476-0.213,0.953-0.426,1.432-0.636c0.672-0.296,1.346-0.589,2.021-0.879
	c0.483-0.207,0.967-0.411,1.452-0.615c0.675-0.283,1.351-0.562,2.029-0.838c0.491-0.2,0.982-0.398,1.474-0.595
	c0.675-0.269,1.352-0.535,2.031-0.797c0.498-0.192,0.998-0.384,1.499-0.573c0.677-0.256,1.356-0.507,2.035-0.757
	c0.506-0.186,1.014-0.37,1.522-0.552c0.677-0.243,1.357-0.481,2.036-0.715c0.515-0.179,1.031-0.357,1.548-0.531
	c0.675-0.228,1.352-0.452,2.031-0.673c0.525-0.172,1.052-0.343,1.578-0.511c0.677-0.216,1.357-0.426,2.038-0.635
	c0.528-0.162,1.056-0.324,1.586-0.482c0.683-0.205,1.369-0.402,2.054-0.6c0.533-0.153,1.066-0.306,1.601-0.456
	c0.683-0.19,1.368-0.376,2.053-0.559c0.541-0.145,1.081-0.291,1.623-0.431c0.684-0.178,1.369-0.35,2.055-0.52
	c0.548-0.136,1.094-0.274,1.643-0.406c0.685-0.164,1.372-0.323,2.059-0.481c0.553-0.127,1.105-0.256,1.66-0.379
	c0.685-0.152,1.374-0.297,2.061-0.443c0.559-0.117,1.118-0.238,1.679-0.351c0.69-0.14,1.38-0.273,2.072-0.405
	c0.56-0.108,1.12-0.218,1.682-0.321c0.694-0.127,1.389-0.248,2.086-0.369c0.566-0.098,1.129-0.199,1.696-0.293
	c0.693-0.115,1.387-0.22,2.081-0.329c0.571-0.088,1.141-0.18,1.715-0.264c0.697-0.102,1.397-0.196,2.097-0.292
	c0.571-0.078,1.142-0.16,1.715-0.232c0.705-0.091,1.413-0.172,2.12-0.256c0.569-0.067,1.137-0.139,1.707-0.2
	c0.719-0.079,1.44-0.149,2.159-0.22c0.561-0.056,1.121-0.116,1.682-0.168c0.734-0.067,1.471-0.124,2.207-0.184
	c0.551-0.045,1.101-0.094,1.653-0.134c0.754-0.055,1.511-0.099,2.267-0.146c0.535-0.034,1.07-0.072,1.606-0.102
	c0.781-0.044,1.564-0.074,2.347-0.108c0.515-0.023,1.028-0.051,1.544-0.07c0.856-0.031,1.713-0.05,2.571-0.072
	c0.443-0.011,0.884-0.028,1.327-0.036c1.301-0.023,2.605-0.036,3.911-0.036C257.915,243.756,259.827,243.791,261.739,243.841z
	 M43.639,456.116c0-22.619,3.499-44.671,10.399-65.809c15.302,17.488,34.46,27.198,54.63,27.198
	c24.808,0,48.459-14.946,64.89-41.005c15.787-25.039,39.002-43.415,65.362-51.741c18.393-5.807,36.752-15.613,53.093-28.356
	c14.722-11.482,27.453-25.063,37.248-39.646c56.111,20.63,101.224,64.383,123.636,119.694l-29.325,4.211
	c-19.064,2.737-34.125,17.32-37.476,36.286l-10.943,61.937c-0.709,4.011-2.529,7.728-5.208,10.762h-52.409l21.309-12.009
	c0.572-0.323,1.114-0.695,1.622-1.112c14.614-12.046,24.816-28.888,28.724-47.419c3.909-18.532,1.379-38.058-7.124-54.981
	l-2.147-4.273c-1.698-3.379-4.988-5.67-8.747-6.09l-19.818-2.212c-20.997-2.353-39.956,11.513-44.089,32.238l-8.964,44.925
	c-0.598,2.997,0.058,6.104,1.808,8.602c1.792,2.808,11.594,21.806,20.097,38.673c0.722,1.432,1.741,2.67,2.964,3.657H46.274
	C44.524,478.598,43.639,467.356,43.639,456.116z M314.882,465.482c-5.271-10.365-10.57-20.627-13.834-26.526l8.138-40.797
	c1.846-9.253,10.311-15.449,19.688-14.395l13.778,1.538c12.09,25.314,5.724,55.182-15.678,73.365L314.882,465.482z M395.373,489.646
	c0.777-2.228,1.378-4.526,1.793-6.872l10.943-61.937c1.666-9.433,9.157-16.688,18.641-18.048l33.545-4.817
	c0.247,0.87,0.49,1.741,0.725,2.613c0.073,0.27,0.151,0.54,0.222,0.811c0.342,1.285,0.672,2.575,0.989,3.867
	c0.083,0.339,0.16,0.678,0.241,1.017c0.23,0.957,0.457,1.913,0.673,2.872c0.105,0.468,0.206,0.938,0.308,1.406
	c0.183,0.837,0.363,1.675,0.536,2.515c0.104,0.505,0.205,1.013,0.305,1.519c0.161,0.814,0.319,1.628,0.469,2.444
	c0.095,0.509,0.189,1.017,0.279,1.527c0.15,0.838,0.292,1.678,0.431,2.518c0.079,0.481,0.161,0.961,0.238,1.443
	c0.149,0.937,0.288,1.877,0.425,2.817c0.055,0.381,0.115,0.762,0.169,1.144c0.184,1.324,0.359,2.65,0.519,3.979
	c0.018,0.148,0.032,0.295,0.049,0.443c0.139,1.176,0.269,2.354,0.389,3.534c0.045,0.443,0.084,0.886,0.125,1.33
	c0.085,0.889,0.167,1.777,0.239,2.668c0.042,0.511,0.079,1.023,0.117,1.533c0.063,0.833,0.122,1.666,0.174,2.5
	c0.034,0.526,0.065,1.053,0.094,1.58c0.047,0.834,0.087,1.669,0.124,2.504c0.022,0.515,0.047,1.032,0.066,1.548
	c0.032,0.887,0.057,1.777,0.079,2.666c0.011,0.456,0.026,0.912,0.035,1.369c0.021,1.148,0.031,2.297,0.035,3.446
	c0,0.197,0.004,0.393,0.004,0.59c0,0.948-0.016,1.893-0.028,2.841c-0.006,0.449-0.006,0.899-0.013,1.348
	c-0.194,9.822-1.063,19.626-2.593,29.284h-70.35V489.646z"/>
</svg>